<svg width="22" height="23" viewBox="0 0 22 23" fill="none" xmlns="http://www.w3.org/2000/svg">
<g clip-path="url(#clip0_2_1671)">
<path d="M22 12C22 5.92488 17.0751 1 11 1C4.92488 1 0 5.92488 0 12C0 17.4903 4.02252 22.0412 9.28125 22.8664V15.1797H6.48826V12H9.28125V9.57656C9.28125 6.81969 10.9235 5.29688 13.4361 5.29688C14.6393 5.29688 15.8984 5.51172 15.8984 5.51172V8.21875H14.5114C13.145 8.21875 12.7188 9.06676 12.7188 9.9375V12H15.7695L15.2818 15.1797H12.7188V22.8664C17.9775 22.0412 22 17.4903 22 12Z" fill="black"/>
</g>
<defs>
<clipPath id="clip0_2_1671">
<rect width="22" height="22" fill="white" transform="translate(0 1)"/>
</clipPath>
</defs>
</svg>
