<svg width="33" height="33" viewBox="0 0 33 33" fill="none" xmlns="http://www.w3.org/2000/svg">
<path fill-rule="evenodd" clip-rule="evenodd" d="M13.6939 4.27723C13.432 4.37905 13.301 4.52449 13.3301 4.68448C13.3738 4.93175 8.03381 12.1461 6.66611 16.5241C6.24414 17.8913 6.92802 18.0804 10.0418 17.4841C11.9333 17.1204 11.8605 16.7423 10.6092 20.2622C9.67802 22.8512 8.99415 25.0184 8.67409 26.342C8.23757 28.0874 9.1542 29.0037 11.424 26.6329C12.3989 25.6147 14.6105 23.3312 19.7903 17.4259C24.1845 12.4224 24.1699 12.5533 20.707 12.4224L18.5682 12.3352C19.5721 11.2734 23.326 7.22988 24.4755 6.28443C25.6249 5.32447 25.9887 4.93176 24.4464 4.71359C22.6568 4.45177 16.6039 4.34996 14.8288 4.18997C14.4213 4.14634 13.9121 4.18997 13.6939 4.27723ZM22.322 5.74627L21.5654 6.3717C19.7175 7.88437 16.0655 12.2333 16.0655 12.9024C16.0655 13.6296 17.2878 13.5569 20.4451 13.5569C15.789 18.9531 12.1515 23.1566 12.0642 23.1566C12.0351 23.1566 12.3698 22.1966 12.8208 21.004C14.5086 16.4805 14.596 15.6369 13.4029 15.7823C11.3367 16.0296 9.31426 16.306 9.0378 16.3932C8.7905 16.4659 8.95049 16.0732 9.88167 14.3278C11.5404 11.157 12.2097 10.2407 15.1198 5.39719C20.6633 5.64446 20.6051 5.64446 22.322 5.74627Z" fill="#006B99"/>
</svg>
