<svg width="22" height="23" viewBox="0 0 22 23" fill="none" xmlns="http://www.w3.org/2000/svg">
<g clip-path="url(#clip0_2_1667)">
<path d="M20.3715 1H1.62422C0.72617 1 0 1.70899 0 2.58555V21.4101C0 22.2867 0.72617 23 1.62422 23H20.3715C21.2695 23 22 22.2867 22 21.4144V2.58555C22 1.70899 21.2695 1 20.3715 1ZM6.52694 19.7473H3.26133V9.24569H6.52694V19.7473ZM4.89413 7.81487C3.8457 7.81487 2.99922 6.96837 2.99922 5.9242C2.99922 4.88008 3.8457 4.03359 4.89413 4.03359C5.9383 4.03359 6.78475 4.88008 6.78475 5.9242C6.78475 6.96406 5.9383 7.81487 4.89413 7.81487ZM18.7473 19.7473H15.4859V14.6426C15.4859 13.4266 15.4644 11.8582 13.7887 11.8582C12.0914 11.8582 11.8336 13.1859 11.8336 14.5566V19.7473H8.57656V9.24569H11.7047V10.6809H11.7476C12.1816 9.85587 13.2473 8.98362 14.8328 8.98362C18.1371 8.98362 18.7473 11.1578 18.7473 13.9852V19.7473Z" fill="black"/>
</g>
<defs>
<clipPath id="clip0_2_1667">
<rect width="22" height="22" fill="white" transform="translate(0 1)"/>
</clipPath>
</defs>
</svg>
