<svg width="67" height="22" viewBox="0 0 67 22" fill="none" xmlns="http://www.w3.org/2000/svg">
<path d="M6.15277 21.5814L0.558365 1.62834H4.42027L7.99179 16.2911H8.17575L11.9893 1.62834H15.5027L19.3259 16.3009H19.5001L23.0717 1.62834H26.9336L21.3391 21.5814H17.7966L13.8283 7.58113H13.6734L9.69531 21.5814H6.15277ZM32.4999 12.813V21.5814H28.9961V1.62834H32.4225V9.15948H32.5967C32.9451 8.31511 33.4839 7.64936 34.2131 7.16225C34.9487 6.66861 35.8843 6.42174 37.02 6.42174C38.0524 6.42174 38.9526 6.63935 39.7204 7.07457C40.4883 7.50971 41.082 8.1462 41.5014 8.98412C41.9273 9.82195 42.1402 10.845 42.1402 12.0531V21.5814H38.6364V12.5987C38.6364 11.5919 38.3783 10.8092 37.8621 10.2506C37.3523 9.68557 36.6361 9.40308 35.7133 9.40308C35.0938 9.40308 34.539 9.53946 34.0486 9.81223C33.5646 10.0785 33.1839 10.465 32.9064 10.9716C32.6354 11.4783 32.4999 12.092 32.4999 12.813ZM45.4392 21.5814V6.61663H48.9429V21.5814H45.4392ZM47.2008 4.49275C46.6458 4.49275 46.1684 4.30757 45.7683 3.9374C45.3682 3.56069 45.1682 3.10929 45.1682 2.58312C45.1682 2.05057 45.3682 1.59917 45.7683 1.22892C46.1684 0.852205 46.6458 0.663849 47.2008 0.663849C47.7621 0.663849 48.2396 0.852205 48.6335 1.22892C49.0335 1.59917 49.2336 2.05057 49.2336 2.58312C49.2336 3.10929 49.0335 3.56069 48.6335 3.9374C48.2396 4.30757 47.7621 4.49275 47.2008 4.49275ZM52.2734 21.5814V6.61663H55.6705V9.11078H55.8252C56.0971 8.24687 56.5612 7.58113 57.2195 7.11347C57.8837 6.63935 58.6419 6.40229 59.4942 6.40229C59.6874 6.40229 59.9037 6.41201 60.1422 6.43155C60.3875 6.44454 60.591 6.46726 60.7525 6.4997V9.74408C60.6038 9.69211 60.3687 9.64659 60.0456 9.60761C59.7293 9.56218 59.4232 9.53946 59.1258 9.53946C58.4872 9.53946 57.9127 9.67912 57.4033 9.95834C56.8998 10.2312 56.5031 10.6112 56.2125 11.0983C55.9227 11.5854 55.7774 12.1473 55.7774 12.7838V21.5814H52.2734ZM66.3115 1.62834V21.5814H62.8075V1.62834H66.3115Z" fill="#2D2D2D"/>
</svg>
