<svg width="33" height="33" viewBox="0 0 33 33" fill="none" xmlns="http://www.w3.org/2000/svg">
<path fill-rule="evenodd" clip-rule="evenodd" d="M12.6457 7.07965C10.8895 8.56835 10.482 8.76501 8.75395 8.94758C6.50606 9.1863 6.5482 9.17228 6.63247 9.62168C6.71675 10.0992 6.84328 11.911 6.88542 12.3885C5.19947 14.3126 5.15729 14.2283 5.31183 15.3098C5.36803 15.7451 5.25565 19.7899 5.53664 23.5398C5.60689 24.4808 5.91594 24.9162 6.78706 25.3656C8.47295 26.2083 9.86387 25.7167 8.52917 24.7477C7.33497 23.8769 7.22259 23.4977 7.09617 20.0427C7.05397 18.9192 6.95561 17.3883 6.87133 16.6299C6.53417 13.6244 7.55981 14.8743 7.51761 15.1272C7.43334 15.8013 7.7705 16.335 9.25979 17.1075C10.159 17.5709 13.5167 19.7197 14.8515 20.1692C16.8324 20.8573 17.6473 19.6214 22.3117 16.4333C23.1688 15.8575 23.7307 15.3378 24.0538 14.8322C24.8687 13.5822 24.9531 19.9164 24.1523 22.6129C23.6184 24.4106 23.4638 24.4668 18.3358 24.5932C13.0812 24.7196 10.5804 25.0567 10.7068 25.4358C11.0159 26.3628 22.663 26.5735 24.5035 25.7027C25.3184 25.3095 26.2034 23.3151 26.372 22.346C26.6249 20.9135 26.639 18.7085 26.4142 15.7732C26.2597 13.6665 26.0489 13.2031 24.8828 12.1638C24.4753 11.7986 24.4472 11.1104 24.8125 9.73403C24.953 9.20038 25.1357 8.34365 23.8572 8.34365C22.5787 8.34365 20.5274 8.4279 20.1762 8.4279C19.6704 8.11896 17.5771 6.92512 17.2118 6.55997C16.8887 6.30717 14.9217 5.15553 12.6457 7.07965ZM17.2118 7.86616C17.6895 8.1751 18.0828 8.44198 18.0828 8.4841C18.0828 8.51221 16.8746 8.54025 15.3994 8.54025C12.5333 8.54025 12.4771 8.51221 13.4746 7.8942C14.9077 6.98133 15.8209 6.98133 17.2118 7.86616ZM23.2109 13.821C23.0985 14.3828 22.4944 14.6356 22.087 14.3126C21.7919 14.0879 21.5109 14.0317 20.373 14.0317C20.0217 14.0317 13.9803 14.0036 11.1986 14.2002C8.75395 14.3687 10.0606 15.3378 11.3532 15.5064C12.435 15.6468 21.1456 15.3098 20.977 15.5766C20.8928 15.717 18.139 17.7394 16.3267 19.2141C15.9473 19.0175 8.88042 15.4221 8.61345 15.4221C8.37464 15.4221 8.20603 9.9728 8.22012 9.95878C8.26226 9.90258 16.425 9.67788 23.1266 9.67788C23.3514 11.7565 23.4778 12.4728 23.2109 13.821ZM16.3548 11.7003C15.4696 12.5851 16.439 12.9222 19.6845 12.866C22.5927 12.8098 22.8175 12.7537 22.2556 12.1076C21.7638 11.5177 16.8606 11.1807 16.3548 11.7003Z" fill="#006B99"/>
</svg>
