<svg width="33" height="33" viewBox="0 0 33 33" fill="none" xmlns="http://www.w3.org/2000/svg">
<path d="M18.3314 15.2539C18.6768 15.2539 18.9115 15.0882 19.1464 14.6463C19.989 13.0722 20.6796 12.9617 21.0525 14.3149C21.4255 15.6405 22.8344 15.7786 22.8344 14.4944C22.8344 13.0722 20.5967 11.9123 18.9944 12.4923C17.8065 12.9341 17.2541 15.2539 18.3314 15.2539Z" fill="#006B99"/>
<path d="M10.9277 15.6819C10.9277 14.453 11.7702 13.9559 12.1708 14.9363C12.6266 16.0271 13.4278 16.3447 13.7316 15.5438C14.298 14.0802 11.2591 12.6442 9.89168 13.7212C9.35302 14.1493 8.86953 15.4058 9.06294 15.9029C9.29772 16.5242 10.9277 16.3171 10.9277 15.6819Z" fill="#006B99"/>
<path d="M11.8808 22.6133C15.5826 24.2565 19.3396 23.7594 21.8121 21.3016C24.4089 18.7195 23.4145 16.027 20.058 16.5379C19.7402 16.5793 18.801 16.9245 17.986 17.2973C16.3285 18.0429 15.3064 18.0981 13.0134 17.5458C9.24249 16.6621 8.27558 21.0254 11.8808 22.6133ZM21.4392 17.6011C22.0746 18.4019 21.7845 19.7689 20.8038 20.694C20.1546 21.3016 20.2237 21.3568 19.7817 19.838C19.5883 19.1614 19.3673 18.471 19.2844 18.2915C19.0358 17.6563 20.9972 17.0349 21.4392 17.6011ZM17.2954 18.5538C18.1103 18.3329 18.1104 18.3191 18.4833 20.1003C18.8977 22.061 18.8977 22.0887 18.1932 22.3372C16.8257 22.8205 16.9777 22.7928 16.6461 18.7195L17.2954 18.5538ZM13.9941 18.7057H15.5273C15.5273 21.5916 15.5688 21.5501 15.776 22.5996L15.0301 22.4614C13.8836 22.2544 13.9941 22.1715 13.9941 18.7057ZM12.4194 18.2501C12.9029 18.3743 13.1101 21.7849 12.6405 21.7849C12.1984 21.7849 11.1763 20.5283 11.0382 19.7965C10.8172 18.5952 11.3697 17.9739 12.4194 18.2501Z" fill="#006B99"/>
<path d="M20.873 7.39698C18.7044 6.30619 18.6492 6.72044 20.6935 8.70875C27.0888 14.9085 25.3622 24.2427 17.696 25.0021C11.7428 25.5958 7.50218 21.9229 7.61271 16.3998C7.69559 12.0089 10.5824 7.41083 15.3341 6.85851C16.2871 6.74802 16.3148 6.72044 15.8866 6.48568C15.2235 6.11285 13.2898 6.18191 12.1157 6.59617C10.5825 7.14849 9.02161 8.2807 7.80606 9.74438C4.75345 13.3896 5.08498 19.1199 7.48839 22.5167C10.4858 26.7557 20.5277 27.4876 24.0499 23.718C28.4701 18.9957 26.7849 10.3795 20.873 7.39698Z" fill="#006B99"/>
</svg>
