<svg width="22" height="23" viewBox="0 0 22 23" fill="none" xmlns="http://www.w3.org/2000/svg">
<g clip-path="url(#clip0_2_1663)">
<path d="M21.7231 3.91331C20.9233 4.34219 20.0751 4.62361 19.2063 4.74804C20.1213 4.08537 20.806 3.04254 21.1329 1.81396C20.2728 2.43199 19.3317 2.86719 18.3504 3.1007C17.9403 2.5713 17.4449 2.14948 16.8946 1.86137C16.3444 1.57325 15.7512 1.42499 15.1517 1.42578C12.7317 1.42578 10.7695 3.80049 10.7695 6.73056C10.7695 7.14593 10.8084 7.55125 10.8833 7.93978C7.24112 7.7185 4.01224 5.60639 1.85081 2.39655C1.46109 3.20616 1.25631 4.12669 1.25747 5.06368C1.2569 5.9371 1.43455 6.79717 1.77465 7.5674C2.11475 8.33775 2.60677 8.99433 3.20698 9.47902C2.51119 9.45228 1.83075 9.22475 1.22224 8.81555C1.22169 8.83767 1.22169 8.85944 1.22169 8.88236C1.22169 11.4517 2.73208 13.5958 4.73649 14.0837C4.09109 14.2952 3.41438 14.3262 2.7576 14.1744C3.31516 16.2814 4.93346 17.8157 6.85105 17.8587C5.29876 19.3333 3.38187 20.1332 1.40865 20.1296C1.05497 20.1296 0.706294 20.1048 0.363159 20.0554C2.36685 21.6138 4.69886 22.4411 7.08047 22.4382C15.1409 22.4382 19.5487 14.3553 19.5487 7.34607C19.5487 7.11646 19.5442 6.88702 19.5359 6.65905C20.3942 5.90887 21.135 4.97901 21.7231 3.91331Z" fill="black"/>
</g>
<defs>
<clipPath id="clip0_2_1663">
<rect width="22" height="22" fill="white" transform="translate(0 1)"/>
</clipPath>
</defs>
</svg>
